<?xml version="1.0" encoding="utf-8"?>
<!-- Generator: Adobe Illustrator 20.0.0, SVG Export Plug-In . SVG Version: 6.00 Build 0)  -->
<svg version="1.1" id="Capa_1" xmlns="http://www.w3.org/2000/svg" xmlns:xlink="http://www.w3.org/1999/xlink" x="0px" y="0px"
	 viewBox="0 0 300 300" style="enable-background:new 0 0 300 300;" xml:space="preserve">
<g>
	<path d="M185,84.2h-41.9h-9c-2,0-4,0.4-5.8,1.2c-1.8,0.8-3.4,1.8-4.8,3.2c-1.3,1.4-3.2,4.8-3.2,4.8l-13.9,26.3l-17.5-7.2l4.8-11.7
		c0.4-0.8,1.1-1.5,2-1.9c0.3-0.2,0.7-0.3,1.1-0.3c1.9-0.1,3.9-1,5.1-2.6c2.2-3,2.8-7,1.2-10.4c0,0,0,0,0,0.1
		c-0.1-0.1-0.1-0.3-0.1-0.3c-0.2-0.4-0.5-0.6-0.8-0.6c-0.4,0-0.7,0.1-0.9,0.4l-2.7,3.5l-3.4-0.5L93.9,85l2.7-3.8
		c0.2-0.3,0.2-0.7,0.1-1c-0.1-0.3-0.4-0.5-0.7-0.6c-1.9-0.4-3.9-0.2-5.7,0.6c-1.7,0.7-3.1,1.8-4.2,3.2c-1.5,2-1.7,4.7-0.6,7.4
		c0,0.1,0,0.1,0,0.1c0,0.1,0.1,0.1,0.1,0.2s0.1,0.2,0.1,0.3c0.1,0.1,0.1,0.3,0.2,0.4c0.6,1.1,0.6,2.3,0.2,3.4L80,110
		c-2.3,0.4-4.4,1.8-5.4,4c-1.8,3.9,0,8.5,3.9,10.1l27,11.2l2.1,0.9c3.8,1.6,8.2-0.2,9.8-4v-0.1l13.6-24h3v65.8v72.8
		c0,6.5,5.5,11.6,12.1,11c5.7-0.5,9.9-5.7,9.9-11.4V174h3.5v72.8c0,6.1,4.9,11,11,11h0.4c6.1,0,11-4.9,11-11V174v-65.9h3v58.4
		c0,4.1,3.4,7.5,7.5,7.5c4.1,0,7.5-3.4,7.5-7.5h0.1V99.2C200,90.9,193.3,84.2,185,84.2z"/>
	<path d="M103,85.4c0,0.1,0.1,0.2,0.1,0.2C103.1,85.6,103.1,85.5,103,85.4z"/>
	<path d="M157.9,81.2c10.8,0,19.5-8.8,19.5-19.5c0-10.8-8.8-19.5-19.5-19.5c-10.7,0-19.4,8.8-19.5,19.5
		C138.4,72.5,147.1,81.2,157.9,81.2z"/>
	<path d="M103.1,85.6c0-0.1-0.1-0.2-0.1-0.2C103,85.4,103,85.6,103.1,85.6C103.1,85.7,103.1,85.7,103.1,85.6z"/>
	<path d="M103.6,86.4C103.9,86.9,103.8,86.7,103.6,86.4L103.6,86.4z"/>
	<path d="M103.2,85.5c0.1,0.2,0.2,0.5,0.3,0.6C103.4,85.9,103.3,85.7,103.2,85.5z"/>
</g>
</svg>
