<?xml version="1.0" encoding="utf-8"?>
<!-- Generator: Adobe Illustrator 20.0.0, SVG Export Plug-In . SVG Version: 6.00 Build 0)  -->
<svg version="1.1" id="Capa_1" xmlns="http://www.w3.org/2000/svg" xmlns:xlink="http://www.w3.org/1999/xlink" x="0px" y="0px"
	 viewBox="0 0 300 300" style="enable-background:new 0 0 300 300;" xml:space="preserve">
<g>
	<path d="M142.3,90.6c8.5-1.7,14-10.1,12.3-18.7c-1.8-8.6-10.1-14.2-18.6-12.5c-8.5,1.7-14,10-12.3,18.7
		C125.5,86.7,133.8,92.3,142.3,90.6z"/>
	<rect x="135.1" y="126" transform="matrix(0.9187 -0.395 0.395 0.9187 -36.9699 83.9992)" width="100.9" height="11.6"/>
	<path d="M148.5,134.4c1.1,0,2.1-0.2,3.1-0.6l29.9-12.9c3.5-1.5,5.3-5.2,4.6-8.7l3.4,4.3c0.6,0.7,1.3,1,2.1,1c0.6,0,1.1-0.1,1.6-0.5
		c1.2-0.8,1.4-2.5,0.5-3.6l-16.9-21.8c-0.8-1.2-2.5-1.4-3.6-0.5c-1.2,0.8-1.4,2.5-0.5,3.6l9.3,12c-2-1-4.3-1.1-6.5-0.2l-24.9,10.7
		l-23.9-25.8c-2.2-2.4-5-3.6-8.3-3.6c-3.2,0-5.9,1.2-8.1,3.6l-34.4,34.1c-1.4,1.4-2.1,3.1-2.1,5.2v97.4c0,3.6,1.3,6.6,3.8,9.1
		s5.5,3.7,9,3.7c3.6,0,6.7-1.3,9.2-3.7c2.5-2.4,3.8-5.5,3.8-9.1v-79.3l30.5-30.8l12.7,13.9C144.3,133.5,146.4,134.4,148.5,134.4z"/>
</g>
</svg>
