<?xml version="1.0" encoding="utf-8"?>
<!-- Generator: Adobe Illustrator 19.2.1, SVG Export Plug-In . SVG Version: 6.00 Build 0)  -->
<svg version="1.1" id="Capa_1" xmlns="http://www.w3.org/2000/svg" xmlns:xlink="http://www.w3.org/1999/xlink" x="0px" y="0px"
	 viewBox="0 0 300 300" style="enable-background:new 0 0 300 300;" xml:space="preserve">
<g>
	<path class="st0" d="M146.4,11.8C70,11.8,8.2,73.7,8.2,150S70,288.2,146.4,288.2S284.6,226.3,284.6,150S222.7,11.8,146.4,11.8z
		 M157.9,42.2c10.7,0,19.5,8.7,19.5,19.5c0,10.7-8.7,19.5-19.5,19.5s-19.5-8.7-19.5-19.5C138.5,51,147.2,42.2,157.9,42.2z
		 M103.6,86.4C103.8,86.7,103.9,86.9,103.6,86.4L103.6,86.4z M199.9,166.5c0,4.1-3.4,7.5-7.5,7.5s-7.5-3.4-7.5-7.5v-58.4h-3v65.9
		v72.8c0,6.1-4.9,11-11,11h-0.4c-6.1,0-11-4.9-11-11v-72.8H156v72.3c0,5.7-4.2,10.9-9.9,11.4c-6.6,0.6-12.1-4.5-12.1-11v-72.8v-65.8
		h-3l-13.6,24l0,0c0,0,0,0.1,0,0.1c-1.6,3.8-6,5.6-9.8,4l-2.1-0.9l-27-11.2c-3.9-1.6-5.7-6.2-3.9-10.1c1-2.2,3.1-3.6,5.4-4l6.1-14.8
		c0.4-1.1,0.4-2.3-0.2-3.4c0,0,0,0,0,0c-0.1-0.1-0.1-0.3-0.2-0.4c0-0.1-0.1-0.2-0.1-0.3c0-0.1-0.1-0.1-0.1-0.2c0,0,0,0,0-0.1
		c-1.1-2.7-0.9-5.4,0.6-7.4c1.1-1.4,2.5-2.5,4.2-3.2c1.8-0.8,3.8-1,5.7-0.6c0.3,0.1,0.6,0.3,0.7,0.6c0.1,0.3,0.1,0.7-0.1,1L93.9,85
		l1.3,3.2l3.4,0.5l2.7-3.5c0.2-0.3,0.5-0.4,0.9-0.4c0.3,0,0.6,0.2,0.8,0.6c0.1,0.1,0.1,0.2,0.1,0.3c-0.1-0.1-0.1-0.3-0.1-0.3
		c1.7,3.4,1.2,7.5-1.1,10.6c0,0,0,0,0,0c-1.2,1.6-3.2,2.5-5.1,2.6c-0.4,0-0.8,0.1-1.1,0.3c-0.9,0.4-1.6,1.1-2,1.9l-4.8,11.7
		l17.5,7.2l13.9-26.3c0,0,1.9-3.4,3.2-4.8c1.4-1.4,3-2.4,4.8-3.2c1.8-0.8,3.8-1.2,5.8-1.2h9h41.9c8.3,0,15,6.7,15,15V166.5z
		 M103.5,86.1c-0.1-0.2-0.2-0.4-0.3-0.6C103.3,85.7,103.4,86,103.5,86.1z"/>
	<path class="st1" d="M103.6,86.4C103.9,86.9,103.8,86.7,103.6,86.4L103.6,86.4z"/>
	<path class="st1" d="M103.5,86.1c-0.1-0.1-0.2-0.4-0.3-0.6C103.3,85.7,103.4,85.9,103.5,86.1z"/>
</g>
</svg>
