<?xml version="1.0" encoding="utf-8"?>
<!-- Generator: Adobe Illustrator 21.0.0, SVG Export Plug-In . SVG Version: 6.00 Build 0)  -->
<svg version="1.1" id="Capa_1" xmlns="http://www.w3.org/2000/svg" xmlns:xlink="http://www.w3.org/1999/xlink" x="0px" y="0px"
	 viewBox="0 0 300 300" style="enable-background:new 0 0 300 300;" xml:space="preserve">
<g>
	<polygon points="97.9,71.4 97.8,71.4 91.1,105.1 91.2,105.2 	"/>
	<path d="M75.1,105.1c-0.6-0.5-1-1.1-1.3-1.7c-0.9-1.7-0.7-3.9,0.6-5.5c0.2-0.3,0.4-0.5,0.7-0.7c-0.3,0.2-0.6,0.5-0.8,0.8
		c-1.3,1.7-1.5,3.8-0.6,5.5c0.3,0.6,0.8,1.2,1.3,1.7l19,15.6l0.1-0.1L75.1,105.1z"/>
	<rect x="153.2" y="173.2" transform="matrix(0.7071 -0.7071 0.7071 0.7071 -77.6002 159.1278)" width="0.1" height="0.1"/>
	<polygon points="82.2,133.8 82.2,133.7 82.2,133.7 82.2,133.9 83.1,178.8 83.1,178.8 	"/>
	<path d="M193.7,171.6c6.6-5.8,15.1-4.7,21.6-2.5c5.5,1.8,9.5,4.4,9.5,4.4l2.7,2.1l-2.8-2.2c0,0-4-2.6-9.5-4.4
		c-6.5-2.2-15.1-3.3-21.6,2.5c-3.5,3.1-6.6,6.2-9.4,9.4l0.1,0.1C187.1,177.7,190.3,174.6,193.7,171.6z"/>
	<path d="M193.8,67.8c0.8,0.8,1.4,1.6,2.1,2.5C195.2,69.3,194.5,68.5,193.8,67.8z"/>
	<path d="M191.3,65.7c0.9,0.6,1.7,1.3,2.5,2C193,67,192.2,66.3,191.3,65.7z"/>
	<polygon points="231.9,179 234,180.6 258.3,198.9 259.8,199.8 258.5,199 234.2,180.7 	"/>
	<path d="M169.4,201.6c2.5-4.2,5.3-8.6,8.4-12.7l0,0C174.8,193,171.9,197.4,169.4,201.6c-0.7,1.2-1.4,2.4-2.1,3.7
		C168,204.1,168.7,202.8,169.4,201.6z"/>
	<polygon points="168.2,168.2 182.5,179.7 168.4,168.2 156.2,158.4 	"/>
	<path d="M141.9,159.8l0.6,0.7L141.9,159.8z"/>
	<path d="M146.4,11.8C70,11.8,8.2,73.7,8.2,150S70,288.2,146.4,288.2S284.6,226.3,284.6,150S222.7,11.8,146.4,11.8z M182,62.9
		c3.4,0,6.6,1,9.3,2.8c0.9,0.6,1.7,1.3,2.5,2c0.8,0.8,1.4,1.6,2.1,2.5c1.8,2.7,2.9,5.9,2.9,9.4c0,9.3-7.6,16.7-16.7,16.7
		c-9.3,0-16.7-7.4-16.7-16.7C165.3,70.5,172.7,62.9,182,62.9z M259.8,199.8l-32.2,31.1l-71.3-0.4c0,0,0,0,0-0.2
		c0.2-1.1,1.3-4.8,3.7-10.4c0.1-0.4,0.3-0.8,0.5-1.1c-0.2,0.3-0.3,0.7-0.5,1c1.9-4.7,5.2-11.3,9.4-18.3c2.5-4.2,5.3-8.5,8.4-12.6
		L142.2,160l11.1,13.1l0,0v0.1l0,0l0,0v0.1l0,0l-29.6,54.8c-1.7,3.3-5.2,5.2-8.7,5.2c-1.5,0-3.3-0.4-4.6-1.1
		c-0.9-0.5-1.7-1.1-2.4-1.9c-3-3-3.8-7.7-1.7-11.6l23.5-43l-3.2-3.8l-21.8-25.5l-1.9,35l-12.4,46.7c-1.3,4.3-5.2,7.2-9.6,7.2
		c-0.9,0-1.7-0.2-2.6-0.4c-1.7-0.4-3.2-1.3-4.3-2.5c-1.9-1.8-3-4.4-3.1-7.1c0-0.9,0.1-1.8,0.3-2.7l11.9-43.9l-0.9-44.9v-0.2l0,0
		v-0.2L94,120.8l-19-15.6c-0.5-0.5-1-1.1-1.3-1.7c-0.9-1.7-0.7-3.8,0.6-5.5c0.2-0.3,0.5-0.6,0.8-0.8c1.8-1.5,4.4-1.5,6.3,0l9.7,7.9
		l6.7-33.7h0.1v-0.1h50.7l24.1,34.8l-0.1,0.1l-24.1-34.7l0,0l24,34.7l-0.1,0.1l0.1,0.1l-11.4,22l11.5-22.1l0.1,0.1l-23.9,45.9
		l19.6,15.9l15.8,12.7c2.8-3.2,5.9-6.3,9.4-9.4c6.5-5.8,15.1-4.7,21.6-2.5c5.5,1.8,9.5,4.4,9.5,4.4l2.8,2.2l6.7,5.1l24.3,18.3
		L259.8,199.8z"/>
	<polygon points="148.7,152.3 148.8,152.3 148.8,152.3 148.7,152.2 	"/>
	<polygon points="111.1,89.6 122,91.2 111.4,89.6 109.8,89.4 109.8,89.5 	"/>
	<path d="M123.5,227.8c-1.7,3.3-5.2,5.3-8.7,5.3c-1.5,0-3-0.2-4.6-1.1c-0.5-0.3-1-0.6-1.4-0.9c0.5,0.4,1,0.8,1.6,1.1
		c1.3,0.7,3,1.1,4.6,1.1c3.5,0,7-2,8.7-5.2l29.6-54.7l-0.1-0.1h0.1l0,0L123.5,227.8z"/>
	<path d="M108.1,230.4L108.1,230.4c-0.1-0.1-0.1-0.1-0.1-0.1c0.2,0.3,0.5,0.5,0.8,0.8C108.6,230.8,108.3,230.6,108.1,230.4
		L108.1,230.4z"/>
	<polygon points="153.3,173.4 153.3,173.3 153.2,173.2 153.2,173.3 	"/>
	<path d="M193.7,171.6c-3.4,3-6.6,6.1-9.4,9.4l0,0c-0.1,0.1-0.1,0.1-0.1,0.1l0.1,0.1c2.9-3.3,6.2-6.6,9.7-9.6
		c6.4-5.6,14.9-4.6,21.3-2.5C208.8,166.9,200.3,165.8,193.7,171.6z"/>
	<path d="M160.5,218.8c1.7-3.7,4-8.4,6.8-13.5C164.4,210.3,162,215,160.5,218.8z"/>
	<path d="M169.4,201.5c-4.2,7-7.5,13.6-9.4,18.3c0.1-0.3,0.3-0.7,0.5-1c1.6-3.8,3.9-8.4,6.8-13.5C168,204,168.7,202.8,169.4,201.5z"
		/>
	<polygon points="148.7,152.4 156.2,158.4 148.8,152.3 	"/>
	<polygon points="156.2,158.4 168.4,168.2 148.8,152.3 148.8,152.3 	"/>
	<polygon points="141.4,159 141.9,159.7 177.9,188.7 	"/>
	<polygon points="156.4,230.5 227.6,230.9 259.8,199.8 227.6,230.7 	"/>
	<polygon points="94.2,120.7 94.2,120.6 94.1,120.7 94,120.7 94,120.8 94,120.8 82.2,133.7 82.2,133.8 	"/>
	<polygon points="94,120.8 82.2,133.5 82.2,133.7 	"/>
	<polygon points="83.1,178.8 83.1,178.8 83.1,178.9 	"/>
	<path d="M71.4,222.9L83.1,179v-0.1l-11.9,43.9c-0.2,0.9-0.3,1.8-0.3,2.6c0.1,2.7,1.2,5.2,3.1,7C71.6,230,70.5,226.4,71.4,222.9z"/>
	<path d="M83.1,178.9L83.1,178.9l-11.9,43.8c-0.2,0.9-0.3,1.8-0.3,2.7c0-0.9,0.1-1.7,0.3-2.6L83.1,178.9z"/>
	<path d="M73.8,103.4c-0.7-1.7-0.6-3.7,0.6-5.3c1.7-2,4.8-2.4,7-0.7l9.8,8l6.7-33.9h50.6l-0.1-0.1H97.9l-6.7,33.8l-0.1-0.1v0.2
		l-9.8-8c-1.9-1.5-4.5-1.5-6.2-0.1c-0.2,0.2-0.5,0.4-0.7,0.7C73.1,99.5,72.9,101.7,73.8,103.4z"/>
	<polygon points="148.5,71.5 148.5,71.5 172.6,106.2 172.7,106.1 148.6,71.3 97.9,71.3 97.9,71.4 148.4,71.4 	"/>
	<path d="M81.3,97.3l9.8,8v-0.2l-9.7-7.9c-1.9-1.5-4.5-1.5-6.3,0C76.8,95.8,79.4,95.8,81.3,97.3z"/>
	<polygon points="104.8,146.4 126.7,171.9 104.8,146.1 	"/>
	<polygon points="109.8,89.5 106.2,107.5 122,91.2 111.1,89.6 	"/>
	<polygon points="134.8,141.1 143.5,124.6 124.6,132.9 	"/>
	<path d="M198.7,79.6c0-3.5-1.1-6.7-2.9-9.4c-0.6-0.9-1.3-1.7-2.1-2.5s-1.6-1.4-2.5-2c-2.7-1.8-5.9-2.8-9.3-2.8
		C191.1,62.9,198.7,70.5,198.7,79.6z"/>
	<path d="M75.1,105.1L94,120.7l0.1-0.1h0.1l0,0l-19.1-15.7c-0.5-0.4-1-0.9-1.3-1.5C74.1,104,74.5,104.6,75.1,105.1z"/>
	<rect x="94.1" y="120.6" transform="matrix(0.6345 -0.7729 0.7729 0.6345 -58.82 116.8347)" width="0.1" height="0.1"/>
	<path d="M177.8,188.8L177.8,188.8L177.8,188.8L177.8,188.8z"/>
	<path d="M177.8,188.9c-3.1,4.2-5.9,8.5-8.4,12.6C171.9,197.3,174.8,192.9,177.8,188.9L177.8,188.9z"/>
	<path d="M182.5,179.7l1.7,1.4l0.1-0.1l-0.1-0.1l-0.1,0.1L182.5,179.7z"/>
	<path d="M184.1,181C184.1,181,184.2,180.9,184.1,181l-15.7-12.8l14.1,11.5L184.1,181z"/>
	<path d="M184.3,181l-0.1,0.1C184.2,181.1,184.2,181.1,184.3,181L184.3,181z"/>
	<path d="M160.1,219.9c-2.4,5.6-3.5,9.3-3.7,10.4C156.6,229.2,157.9,225.5,160.1,219.9z"/>
	<path d="M148.7,152.2l12.4-23.8L148.7,152.2z"/>
	<polygon points="148.8,152.3 172.7,106.4 172.6,106.3 161.1,128.4 148.7,152.2 	"/>
	<path d="M90.3,227.8c-1.1,4.4-5.2,7.2-9.6,7.2c-0.9,0-1.7-0.2-2.6-0.4c-1.6-0.4-3-1.2-4.1-2.3c1.2,1.2,2.6,2,4.3,2.5
		c0.9,0.2,1.7,0.4,2.6,0.4c4.3,0,8.3-2.8,9.6-7.2l12.4-46.7L90.3,227.8z"/>
	<path d="M215.3,169.1c5.4,1.8,9.3,4.4,9.3,4.4l7.3,5.5l-4.4-3.4l-2.7-2.1C224.8,173.5,220.8,170.9,215.3,169.1z"/>
	<polygon points="234.2,180.7 227.5,175.6 231.9,179 	"/>
	<polygon points="83.1,178.7 82.2,133.8 83.1,178.8 	"/>
	<polygon points="153.2,173.2 153.3,173.1 142.5,160.5 	"/>
	<polygon points="141.4,159.2 141.9,159.8 142.2,160 141.9,159.7 	"/>
	<polygon points="142.5,160.5 153.3,173.1 153.3,173.1 142.2,160 141.9,159.8 	"/>
	<polygon points="102.9,181.4 104.8,146.4 104.6,146.1 	"/>
	<path d="M106.6,219l23.5-43l-3.4-4l3.2,3.8l-23.5,43c-2.2,3.9-1.3,8.6,1.7,11.6l0,0C105.2,227.3,104.5,222.8,106.6,219z"/>
	<path d="M108.1,230.4L108.1,230.4L108.1,230.4L108.1,230.4z"/>
	<polygon points="109.6,89.4 106.1,107.4 109.8,89.4 	"/>
</g>
</svg>
