<?xml version="1.0" encoding="utf-8"?>
<!-- Generator: Adobe Illustrator 19.2.1, SVG Export Plug-In . SVG Version: 6.00 Build 0)  -->
<svg version="1.1" id="Capa_1" xmlns="http://www.w3.org/2000/svg" xmlns:xlink="http://www.w3.org/1999/xlink" x="0px" y="0px"
	 viewBox="0 0 300 300" style="enable-background:new 0 0 300 300;" xml:space="preserve">
<g>
	<path class="st0" d="M146.4,11.8C70,11.8,8.2,73.7,8.2,150S70,288.2,146.4,288.2S284.6,226.3,284.6,150S222.7,11.8,146.4,11.8z
		 M136,59.4c8.5-1.7,16.8,3.9,18.6,12.5c1.7,8.6-3.8,17-12.3,18.7c-8.5,1.7-16.8-3.9-18.6-12.5C122,69.4,127.5,61.1,136,59.4z
		 M99.6,148.8v79.3c0,3.6-1.3,6.7-3.8,9.1c-2.5,2.4-5.6,3.7-9.2,3.7c-3.5,0-6.5-1.2-9-3.7c-2.5-2.5-3.8-5.5-3.8-9.1v-97.4
		c0-2.1,0.7-3.8,2.1-5.2l34.4-34.1c2.2-2.4,4.9-3.6,8.1-3.6c3.3,0,6.1,1.2,8.3,3.6l23.9,25.8l24.9-10.7c2.2-0.9,4.5-0.8,6.5,0.2
		l-9.3-12c-0.9-1.1-0.7-2.8,0.5-3.6c1.1-0.9,2.8-0.7,3.6,0.5l16.9,21.8c0.9,1.1,0.7,2.8-0.5,3.6c-0.5,0.4-1,0.5-1.6,0.5
		c-0.8,0-1.5-0.3-2.1-1l-3.4-4.3c0.7,3.5-1.1,7.2-4.6,8.7l-29.9,12.9c-1,0.4-2,0.6-3.1,0.6c-2.1,0-4.2-0.9-5.7-2.5L130.1,118
		L99.6,148.8z M141.5,157.1l-4.6-10.7l92.7-39.9l4.6,10.7L141.5,157.1z"/>
</g>
</svg>
