<?xml version="1.0" encoding="utf-8"?>
<!-- Generator: Adobe Illustrator 19.2.0, SVG Export Plug-In . SVG Version: 6.00 Build 0)  -->
<svg version="1.1" id="Capa_1" xmlns="http://www.w3.org/2000/svg" xmlns:xlink="http://www.w3.org/1999/xlink" x="0px" y="0px"
	 viewBox="0 0 843.9 220" style="enable-background:new 0 0 843.9 220;" xml:space="preserve">
<style type="text/css">
	.st0{fill:#FFFFFF;}
	.st1{fill:#EAC731;}
	.st2{opacity:0.82;fill:#FFFFFF;enable-background:new    ;}
</style>
<title>logo</title>
<path class="st0" d="M318.2,88.7c0.2,0.5-0.1,0.9-0.7,1.4c-3.6,2.6-9.9,4.4-15.9,4.4c-14.4,0-26.1-12.2-26.1-27.3
	s11.7-27.3,26.1-27.3c6,0,12.4,1.7,15.9,4.4c0.6,0.5,0.9,0.8,0.7,1.4l-4.8,10.1c-0.1,0.5-0.7,0.8-1.2,0.7c-0.1,0-0.1,0-0.2-0.1
	c-2.7-1.5-5.7-2.2-8.8-2.1c-6.5,0-11.6,5.8-11.6,13s5.2,13,11.6,13c3.1,0.1,6.1-0.6,8.8-2.1c0.5-0.3,1.1-0.1,1.4,0.4
	c0,0.1,0.1,0.1,0.1,0.2L318.2,88.7z"/>
<path class="st0" d="M373.5,67.1c0,16.4-10.9,27.3-27.3,27.3S319,83.4,319,67.1s10.9-27.3,27.3-27.3S373.5,50.7,373.5,67.1z
	 M334.7,67.1c0,7.5,4.6,12.5,11.5,12.5s11.5-5,11.5-12.5s-4.6-12.5-11.5-12.5S334.7,59.6,334.7,67.1L334.7,67.1z"/>
<path class="st0" d="M421.3,41c0.6,0,1.1,0.5,1.1,1.1c0,0,0,0,0,0v50.1c0,0.6-0.5,1.1-1.1,1.1c0,0,0,0,0,0h-13.1
	c-0.7-0.1-1.3-0.4-1.6-1l-13.2-23.6v23.5c0,0.6-0.5,1.1-1.1,1.1c0,0,0,0,0,0h-13.4c-0.6,0-1-0.5-1.1-1.1V42.1c0-0.6,0.5-1.1,1.1-1.1
	c0,0,0,0,0,0H392c0.7,0,1.4,0.4,1.7,1l13.1,23.6V42.1c0-0.6,0.5-1.1,1.1-1.1L421.3,41z"/>
<path class="st0" d="M432.1,78c0.3-0.8,0.9-1,1.4-0.6c3.8,2.4,8.3,4.1,11.1,4.1c2.1,0,3.6-1.1,3.6-2.6c0-6.8-21.5-4.2-21.5-22.1
	c0-10.2,7.7-16.9,19.2-16.9c6.1,0.1,12,2.1,17,5.6c0.4,0.3,0.5,0.8,0.3,1.2l-5.2,9.2c-0.4,0.7-0.9,0.9-1.4,0.6
	c-3.5-2-7.4-3.3-10-3.3c-2.2,0-3.7,1.1-3.7,2.8c0,5.8,21.5,3,21.5,21.5c0,10.2-7.8,16.9-19.5,16.9c-6.1-0.1-12-2.1-16.9-5.6
	c-0.4-0.3-0.5-0.8-0.3-1.2L432.1,78z"/>
<path class="st0" d="M504.5,41c0.6,0,1,0.4,1.1,0.9c0,0,0,0.1,0,0.1l-1.1,11.5c-0.1,0.6-0.6,1-1.2,1.1h-9.8v37.6
	c0,0.6-0.5,1-1.1,1.1H479c-0.6,0-1.1-0.5-1.1-1.1V54.6h-11.1c-0.6,0-1-0.5-1.1-1.1V42.1c0-0.6,0.5-1.1,1.1-1.1L504.5,41z"/>
<path class="st0" d="M551.6,92.1c0.4,0.7-0.2,1.2-0.8,1.2h-15.4c-0.8,0-1.4-0.5-1.7-1.2L527,76.6c-0.7-1.7-1.8-2.5-3-2.4v18
	c-0.1,0.6-0.6,1.1-1.2,1.1h-13.3c-0.6,0-1.1-0.5-1.1-1.1V42.1c0-0.6,0.5-1.1,1.1-1.1h20c11.7,0,19.4,6.8,19.4,17.1
	c0.1,5.9-3.2,11.4-8.5,14.1L551.6,92.1z M528.5,62.7c2.6,0,4.3-1.6,4.3-4s-1.7-4-4.3-4H524v8H528.5z"/>
<path class="st0" d="M596.6,41c0.8-0.1,1.5,0.5,1.6,1.3v31.9c0,12.1-8.8,20.2-22.1,20.2s-22.1-8-22.1-20.2v-32
	c0.1-0.8,0.8-1.4,1.6-1.3h12.4c0.7,0,1.7,0.6,1.7,1.3v32.2c0,3.5,2.9,6.4,6.4,6.4c3.5,0,6.4-2.9,6.4-6.4V42.3c0-0.7,1-1.3,1.7-1.3
	L596.6,41z"/>
<path class="st0" d="M647.9,41c0.7,0,1.2,0.5,0.8,1.2l-17.2,27.5v22.5c-0.1,0.6-0.5,1.1-1.1,1.1H617c-0.6,0-1.1-0.5-1.1-1.1V69.7
	l-17.2-27.5c-0.4-0.7,0.2-1.2,0.8-1.2h16.2c0.8,0,1.4,0.5,1.7,1.2l6.2,12.2l6.2-12.2c0.3-0.7,1-1.1,1.7-1.2H647.9z"/>
<path class="st0" d="M684.5,79.6c0.6,0,1.1,0.4,1.1,1v11.6c-0.1,0.6-0.5,1-1.1,1h-33.7c-0.5,0-1.1-0.6-1.2-1.1V42
	c0-0.6,0.4-1,0.9-1.1c0,0,0.1,0,0.1,0H684c0.6,0,1.1,0.4,1.2,1.1v11.5c0,0.6-0.5,1.1-1.1,1.1c0,0,0,0-0.1,0h-18.7v6h17.3
	c0.5-0.1,0.9,0.3,1,0.8c0,0.1,0,0.1,0,0.2l-1.1,10.6c-0.2,0.6-0.7,1-1.3,1h-15.9v6.5L684.5,79.6z"/>
<path class="st0" d="M734.2,41c0.6,0,1.1,0.5,1.1,1.1c0,0,0,0,0,0v50.1c0,0.6-0.5,1.1-1.1,1.1c0,0,0,0,0,0h-13.1
	c-0.7-0.1-1.3-0.4-1.6-1l-13.2-23.6v23.5c0,0.6-0.5,1.1-1.1,1.1c0,0,0,0,0,0h-13.4c-0.6,0-1-0.5-1.1-1.1V42.1c0-0.6,0.5-1.1,1.1-1.1
	c0,0,0,0,0,0h13.1c0.7,0,1.4,0.4,1.7,1l13.1,23.6V42.1c0-0.6,0.5-1.1,1.1-1.1L734.2,41z"/>
<path class="st0" d="M759.5,41c16.1,0,26.8,10.4,26.8,26.2c0,15.6-10.7,26.2-26.8,26.2h-17.6c-0.6-0.1-1.1-0.5-1.1-1.1v-50
	c0-0.6,0.5-1.1,1.1-1.1L759.5,41z M760.4,79.7c5.8,0,9.8-5,9.8-12.5s-3.9-12.5-9.8-12.5h-3.9v25L760.4,79.7z"/>
<path class="st0" d="M843.9,67.1c0,16.4-10.9,27.3-27.3,27.3s-27.3-10.9-27.3-27.3s10.9-27.3,27.3-27.3S843.9,50.7,843.9,67.1z
	 M805.1,67.1c0,7.5,4.6,12.5,11.5,12.5s11.5-5,11.5-12.5s-4.6-12.5-11.5-12.5S805.1,59.6,805.1,67.1L805.1,67.1z"/>
<path class="st0" d="M329.2,101.1c0.8-0.1,1.5,0.5,1.5,1.3c0,0.1,0,0.1,0,0.2l-1.6,16.4c-0.1,0.8-0.9,1.5-1.7,1.5h-13.9V174
	c0,0.8-0.7,1.5-1.5,1.5h-19.1c-0.8,0-1.6-0.7-1.6-1.5v-53.5h-15.7c-0.8,0-1.5-0.7-1.5-1.5v-16.3c0-0.8,0.7-1.6,1.5-1.6H329.2z"/>
<path class="st0" d="M407.3,138.1c0,23.3-15.5,38.8-38.8,38.8s-38.8-15.5-38.8-38.8s15.5-38.8,38.8-38.8S407.3,114.9,407.3,138.1z
	 M352.1,138.3c0,10.7,6.6,17.8,16.4,17.8s16.4-7.1,16.4-17.8s-6.6-17.8-16.4-17.8S352.1,127.6,352.1,138.3L352.1,138.3z"/>
<path class="st0" d="M439.8,101.1c22.8,0,38,14.8,38,37.2c0,22.2-15.2,37.2-38,37.2h-25c-0.8-0.1-1.5-0.8-1.5-1.6v-71.1
	c0-0.8,0.7-1.6,1.5-1.6H439.8z M441.1,156.1c8.3,0,13.9-7.1,13.9-17.8s-5.6-17.8-13.9-17.8h-5.6V156L441.1,156.1z"/>
<path class="st0" d="M559.8,138.1c0,23.3-15.5,38.8-38.8,38.8s-38.8-15.5-38.8-38.8s15.5-38.8,38.8-38.8S559.8,114.9,559.8,138.1z
	 M504.6,138.3c0,10.7,6.6,17.8,16.4,17.8s16.4-7.1,16.4-17.8s-6.6-17.8-16.4-17.8S504.6,127.6,504.6,138.3L504.6,138.3z"/>
<path class="st0" d="M574,177c-5.7,0-9.5-3.6-9.5-8.8s3.8-9.1,9.5-9.1s9.5,3.7,9.5,9.1S579.7,177,574,177z"/>
<path class="st0" d="M648.8,168.9c0.3,0.8-0.1,1.3-1,1.9c-5.1,3.8-14.1,6.2-22.6,6.2c-20.5,0-37.1-17.4-37.1-38.8
	s16.6-38.8,37.1-38.8c8.5,0,17.6,2.5,22.6,6.2c0.9,0.6,1.3,1.2,1,1.9L642,122c-0.2,0.7-1,1.2-1.7,1c-0.1,0-0.2-0.1-0.3-0.1
	c-3.8-2.1-8.1-3.2-12.5-3c-9.2,0-16.5,8.3-16.5,18.4s7.3,18.4,16.5,18.4c4.4,0.2,8.7-0.9,12.5-3c0.7-0.4,1.5-0.1,1.9,0.6
	c0,0.1,0.1,0.2,0.1,0.3L648.8,168.9z"/>
<path class="st0" d="M727.4,138.1c0,23.3-15.5,38.8-38.8,38.8s-38.8-15.5-38.8-38.8s15.5-38.8,38.8-38.8S727.4,114.9,727.4,138.1z
	 M672.2,138.3c0,10.7,6.6,17.8,16.4,17.8s16.4-7.1,16.4-17.8s-6.6-17.8-16.4-17.8S672.2,127.6,672.2,138.3L672.2,138.3z"/>
<path class="st0" d="M817,101.1c0.9,0,1.5,0.8,1.5,1.6v71.3c0,0.8-0.7,1.5-1.5,1.5h-19.9c-0.8,0-1.6-0.7-1.6-1.5v-31.7l-10.9,31.6
	c-0.3,1-1.2,1.6-2.3,1.6h-12.7c-1,0-1.9-0.7-2.3-1.6l-10.9-31.6v31.7c-0.1,0.8-0.8,1.5-1.6,1.5h-19.9c-0.8,0-1.5-0.7-1.5-1.5v-71.2
	c0-0.9,0.6-1.6,1.5-1.6h25.6c1.4,0,2.7,0.8,3.1,2.2l12.3,40.4l12.3-40.4c0.4-1.4,1.7-2.2,3.1-2.2H817z"/>
<path class="st1" d="M0,0v220h245.9V0H0z M194.5,155.8H51.3v-21.9H64c0.1-18.9,10.1-36.4,26.4-46l15.5,41.2V74.3l15-10.1l0.4,0.3
	l15.5,9.9v54.9l16.4-41.2c16.7,9.6,27.9,26.6,27.9,46h13.5V155.8z"/>
<path class="st1" d="M153.2,87.9l-16.4,41.2V74.3l-15.5-9.9l0.7,91.4h72.5v-21.9h-13.4C181.1,114.5,170,97.5,153.2,87.9z"/>
<path class="st2" d="M153.2,87.9l-16.4,41.2V74.3l-15.5-9.9l0.7,91.4h72.5v-21.9h-13.4C181.1,114.5,170,97.5,153.2,87.9z"/>
<path class="st0" d="M120.9,64.2l-15,10.1v54.9L90.4,88c-16.3,9.6-26.3,27.1-26.4,46H51.3v21.9H122l-0.7-91.4L120.9,64.2z"/>
</svg>
