<svg id="Capa_1" data-name="Capa 1" xmlns="http://www.w3.org/2000/svg" viewBox="0 0 843.9 220"><defs><style>.cls-1{fill:#434142;}.cls-2{fill:#eac731;}.cls-3,.cls-4{fill:#fff;}.cls-3{opacity:0.82;}</style></defs><title>logo</title><path class="cls-1" d="M579.7,362.67c.23.53-.08.91-.68,1.36-3.56,2.65-9.93,4.4-15.92,4.4-14.41,0-26.09-12.21-26.09-27.3s11.68-27.3,26.09-27.3c6,0,12.36,1.74,15.92,4.4.61.45.91.83.68,1.36l-4.78,10.09a1,1,0,0,1-1.44.61,16.81,16.81,0,0,0-8.8-2.12c-6.45,0-11.6,5.84-11.6,13s5.16,13,11.6,13a16.81,16.81,0,0,0,8.8-2.12,1,1,0,0,1,1.44.61Z" transform="translate(-261.45 -274)"/><path class="cls-1" d="M635,341.06c0,16.38-10.92,27.3-27.3,27.3s-27.3-10.92-27.3-27.3,10.92-27.3,27.3-27.3S635,324.68,635,341.06Zm-38.83.08c0,7.51,4.63,12.51,11.53,12.51s11.53-5,11.53-12.51-4.63-12.51-11.53-12.51S596.15,333.63,596.15,341.14Z" transform="translate(-261.45 -274)"/><path class="cls-1" d="M682.75,315a1.12,1.12,0,0,1,1.14,1.14v50.12a1.1,1.1,0,0,1-1.14,1.06H669.63a2.06,2.06,0,0,1-1.59-1l-13.19-23.58v23.51a1.1,1.1,0,0,1-1.14,1.06H640.29a1.08,1.08,0,0,1-1.06-1.06V316.11a1.1,1.1,0,0,1,1.06-1.14h13.12a2,2,0,0,1,1.74,1l13.12,23.58V316.11a1.16,1.16,0,0,1,1.06-1.14Z" transform="translate(-261.45 -274)"/><path class="cls-1" d="M693.52,352c.3-.76.91-1,1.44-.61,3.79,2.43,8.27,4.09,11.07,4.09,2.12,0,3.56-1.06,3.56-2.65,0-6.75-21.46-4.25-21.46-22.07,0-10.16,7.66-16.91,19.19-16.91a30.53,30.53,0,0,1,17,5.61,1,1,0,0,1,.3,1.21l-5.23,9.25c-.38.68-.91.91-1.44.61-3.49-2-7.43-3.26-10-3.26-2.2,0-3.72,1.14-3.72,2.81,0,5.76,21.46,3,21.46,21.46,0,10.16-7.81,16.91-19.49,16.91a30.48,30.48,0,0,1-16.91-5.61,1,1,0,0,1-.3-1.21Z" transform="translate(-261.45 -274)"/><path class="cls-1" d="M766,315a1,1,0,0,1,1.06,1.06l-1.14,11.53a1.29,1.29,0,0,1-1.21,1.06h-9.78v37.61a1.08,1.08,0,0,1-1.06,1.06H740.46a1.16,1.16,0,0,1-1.14-1.06V328.62H728.25a1.08,1.08,0,0,1-1.06-1.06V316.11a1.16,1.16,0,0,1,1.06-1.14Z" transform="translate(-261.45 -274)"/><path class="cls-1" d="M813.1,366.08c.38.68-.15,1.21-.83,1.21H796.87a2,2,0,0,1-1.74-1.21l-6.67-15.47c-.68-1.67-1.82-2.5-3-2.35v18a1.18,1.18,0,0,1-1.21,1.06H770.94a1.16,1.16,0,0,1-1.14-1.06V316.11a1.17,1.17,0,0,1,1.14-1.14h20c11.68,0,19.41,6.82,19.41,17.14a15.64,15.64,0,0,1-8.49,14.1ZM790,336.66c2.58,0,4.32-1.59,4.32-4s-1.74-4-4.32-4H785.5v8Z" transform="translate(-261.45 -274)"/><path class="cls-1" d="M858.07,315a1.47,1.47,0,0,1,1.59,1.29v31.93c0,12.13-8.8,20.17-22.07,20.17s-22.07-8-22.07-20.17V316.26a1.47,1.47,0,0,1,1.59-1.29h12.44c.68,0,1.67.61,1.67,1.29v32.23a6.37,6.37,0,0,0,12.74,0V316.26c0-.68,1-1.29,1.67-1.29Z" transform="translate(-261.45 -274)"/><path class="cls-1" d="M909.33,315c.68,0,1.21.53.83,1.21l-17.21,27.53v22.52a1.16,1.16,0,0,1-1.14,1.06H878.47a1.16,1.16,0,0,1-1.14-1.06V343.71l-17.21-27.53c-.38-.68.15-1.21.83-1.21h16.23a2,2,0,0,1,1.74,1.21l6.22,12.21,6.22-12.21A2,2,0,0,1,893.1,315Z" transform="translate(-261.45 -274)"/><path class="cls-1" d="M946,353.65a1.09,1.09,0,0,1,1.14,1v11.6A1.16,1.16,0,0,1,946,367.3H912.29c-.53,0-1.06-.61-1.21-1.14V316a1,1,0,0,1,1.06-1.06H945.5a1.18,1.18,0,0,1,1.21,1.06v11.45a1.14,1.14,0,0,1-1.21,1.14H926.85v6h17.29a.91.91,0,0,1,1,1l-1.06,10.62a1.33,1.33,0,0,1-1.29,1H926.85v6.45Z" transform="translate(-261.45 -274)"/><path class="cls-1" d="M995.7,315a1.12,1.12,0,0,1,1.14,1.14v50.12a1.1,1.1,0,0,1-1.14,1.06H982.58a2.06,2.06,0,0,1-1.59-1l-13.19-23.58v23.51a1.1,1.1,0,0,1-1.14,1.06H953.23a1.08,1.08,0,0,1-1.06-1.06V316.11a1.1,1.1,0,0,1,1.06-1.14h13.12a2,2,0,0,1,1.74,1l13.12,23.58V316.11a1.16,1.16,0,0,1,1.06-1.14Z" transform="translate(-261.45 -274)"/><path class="cls-1" d="M1020.95,315c16.08,0,26.77,10.39,26.77,26.16,0,15.62-10.69,26.16-26.77,26.16h-17.59a1.16,1.16,0,0,1-1.06-1.14v-50a1.16,1.16,0,0,1,1.06-1.14Zm.91,38.67c5.84,0,9.78-5,9.78-12.51s-3.94-12.51-9.78-12.51h-3.94v25Z" transform="translate(-261.45 -274)"/><path class="cls-1" d="M1105.35,341.06c0,16.38-10.92,27.3-27.3,27.3s-27.3-10.92-27.3-27.3,10.92-27.3,27.3-27.3S1105.35,324.68,1105.35,341.06Zm-38.83.08c0,7.51,4.63,12.51,11.53,12.51s11.53-5,11.53-12.51-4.63-12.51-11.53-12.51S1066.52,333.63,1066.52,341.14Z" transform="translate(-261.45 -274)"/><path class="cls-1" d="M590.69,375.06a1.41,1.41,0,0,1,1.51,1.51L590.58,393a1.83,1.83,0,0,1-1.72,1.51H574.95v53.47a1.54,1.54,0,0,1-1.51,1.51H554.36a1.64,1.64,0,0,1-1.62-1.51V394.47H537a1.54,1.54,0,0,1-1.51-1.51V376.68a1.64,1.64,0,0,1,1.51-1.62Z" transform="translate(-261.45 -274)"/><path class="cls-1" d="M668.74,412.15c0,23.29-15.52,38.81-38.81,38.81s-38.81-15.52-38.81-38.81,15.52-38.81,38.81-38.81S668.74,388.86,668.74,412.15Zm-55.2.11c0,10.67,6.58,17.79,16.39,17.79s16.39-7.11,16.39-17.79-6.58-17.79-16.39-17.79S613.54,401.58,613.54,412.25Z" transform="translate(-261.45 -274)"/><path class="cls-1" d="M701.29,375.06c22.85,0,38.05,14.77,38.05,37.19,0,22.21-15.2,37.19-38.05,37.19h-25a1.64,1.64,0,0,1-1.51-1.62V376.68a1.64,1.64,0,0,1,1.51-1.62Zm1.29,55c8.3,0,13.91-7.11,13.91-17.79s-5.61-17.79-13.91-17.79H697V430Z" transform="translate(-261.45 -274)"/><path class="cls-1" d="M821.28,412.15c0,23.29-15.52,38.81-38.81,38.81s-38.81-15.52-38.81-38.81,15.52-38.81,38.81-38.81S821.28,388.86,821.28,412.15Zm-55.2.11c0,10.67,6.58,17.79,16.39,17.79s16.39-7.11,16.39-17.79-6.58-17.79-16.39-17.79S766.09,401.58,766.09,412.25Z" transform="translate(-261.45 -274)"/><path class="cls-1" d="M835.4,451c-5.71,0-9.49-3.56-9.49-8.84s3.77-9.06,9.49-9.06,9.49,3.67,9.49,9.06S841.12,451,835.4,451Z" transform="translate(-261.45 -274)"/><path class="cls-1" d="M910.22,442.87c.32.75-.11,1.29-1,1.94-5.07,3.77-14.12,6.25-22.64,6.25-20.48,0-37.08-17.36-37.08-38.81s16.6-38.81,37.08-38.81c8.52,0,17.57,2.48,22.64,6.25.86.65,1.29,1.19,1,1.94L903.43,396a1.4,1.4,0,0,1-2,.86,23.89,23.89,0,0,0-12.51-3c-9.16,0-16.49,8.3-16.49,18.43s7.33,18.43,16.49,18.43a23.89,23.89,0,0,0,12.51-3,1.4,1.4,0,0,1,2,.86Z" transform="translate(-261.45 -274)"/><path class="cls-1" d="M988.81,412.15c0,23.29-15.52,38.81-38.81,38.81s-38.81-15.52-38.81-38.81,15.52-38.81,38.81-38.81S988.81,388.86,988.81,412.15Zm-55.2.11c0,10.67,6.58,17.79,16.39,17.79s16.39-7.11,16.39-17.79-6.58-17.79-16.39-17.79S933.61,401.58,933.61,412.25Z" transform="translate(-261.45 -274)"/><path class="cls-1" d="M1078.5,375.06a1.57,1.57,0,0,1,1.51,1.62v71.26a1.54,1.54,0,0,1-1.51,1.51h-19.94a1.64,1.64,0,0,1-1.62-1.51V416.24l-10.89,31.59a2.43,2.43,0,0,1-2.26,1.62h-12.72a2.43,2.43,0,0,1-2.26-1.62l-10.89-31.59v31.69a1.64,1.64,0,0,1-1.62,1.51H996.36a1.54,1.54,0,0,1-1.51-1.51V376.68a1.57,1.57,0,0,1,1.51-1.62H1022a3.28,3.28,0,0,1,3.13,2.16l12.29,40.43,12.29-40.43a3.09,3.09,0,0,1,3.13-2.16Z" transform="translate(-261.45 -274)"/><path class="cls-2" d="M261.45,274V494H507.33V274ZM456,429.84H312.74V407.9h12.75a53.73,53.73,0,0,1,26.35-46l15.5,41.19V348.28l15-10.13.41.26,15.5,9.87v54.86l16.4-41.19c16.73,9.56,27.87,26.56,27.87,46H456Z" transform="translate(-261.45 -274)"/><path class="cls-2" d="M414.69,361.95l-16.4,41.19V348.28l-15.5-9.87.66,91.43H456V407.9H442.56C442.56,388.51,431.42,371.51,414.69,361.95Z" transform="translate(-261.45 -274)"/><path class="cls-3" d="M414.69,361.95l-16.4,41.19V348.28l-15.5-9.87.66,91.43H456V407.9H442.56C442.56,388.51,431.42,371.51,414.69,361.95Z" transform="translate(-261.45 -274)"/><path class="cls-4" d="M382.38,338.16l-15,10.13v54.86l-15.5-41.19a53.73,53.73,0,0,0-26.35,46H312.74v21.94h70.71l-.66-91.43Z" transform="translate(-261.45 -274)"/></svg>